<svg width="24" height="24" viewBox="0 0 24 24" fill="none" xmlns="http://www.w3.org/2000/svg">
<path d="M7.00684 12C7.00684 11.801 7.08585 11.6103 7.22651 11.4696C7.36716 11.329 7.55792 11.25 7.75684 11.25H11.2498V7.75696C11.2498 7.55805 11.3289 7.36728 11.4695 7.22663C11.6102 7.08598 11.8009 7.00696 11.9998 7.00696C12.1987 7.00696 12.3895 7.08598 12.5302 7.22663C12.6708 7.36728 12.7498 7.55805 12.7498 7.75696V11.25H16.2428C16.4417 11.25 16.6325 11.329 16.7732 11.4696C16.9138 11.6103 16.9928 11.801 16.9928 12C16.9928 12.1989 16.9138 12.3896 16.7732 12.5303C16.6325 12.6709 16.4417 12.75 16.2428 12.75H12.7498V16.243C12.7498 16.4419 12.6708 16.6326 12.5302 16.7733C12.3895 16.9139 12.1987 16.993 11.9998 16.993C11.8009 16.993 11.6102 16.9139 11.4695 16.7733C11.3289 16.6326 11.2498 16.4419 11.2498 16.243V12.75H7.75684C7.55792 12.75 7.36716 12.6709 7.22651 12.5303C7.08585 12.3896 7.00684 12.1989 7.00684 12Z" fill="black"/>
<path fill-rule="evenodd" clip-rule="evenodd" d="M7.31684 3.76904C10.4293 3.42399 13.5704 3.42399 16.6828 3.76904C18.5098 3.97304 19.9848 5.41204 20.1988 7.24904C20.5688 10.406 20.5688 13.595 20.1988 16.752C19.9838 18.589 18.5088 20.027 16.6828 20.232C13.5704 20.5771 10.4293 20.5771 7.31684 20.232C5.48984 20.027 4.01484 18.589 3.80084 16.752C3.43162 13.5951 3.43162 10.4059 3.80084 7.24904C4.01484 5.41204 5.49084 3.97304 7.31684 3.76904ZM16.5168 5.25904C13.5147 4.92627 10.485 4.92627 7.48284 5.25904C6.92708 5.32069 6.40834 5.56791 6.01042 5.96075C5.6125 6.35359 5.35863 6.86912 5.28984 7.42404C4.93419 10.465 4.93419 13.5371 5.28984 16.578C5.35884 17.1328 5.6128 17.6481 6.0107 18.0407C6.40861 18.4334 6.92723 18.6804 7.48284 18.742C10.4598 19.074 13.5398 19.074 16.5168 18.742C17.0723 18.6802 17.5907 18.433 17.9884 18.0404C18.3861 17.6478 18.6399 17.1326 18.7088 16.578C19.0645 13.5371 19.0645 10.465 18.7088 7.42404C18.6397 6.86963 18.3858 6.35468 17.9881 5.96226C17.5904 5.56983 17.0721 5.32281 16.5168 5.26104" fill="black"/>
</svg>
