<svg width="24" height="24" viewBox="0 0 24 24" fill="none" xmlns="http://www.w3.org/2000/svg">
<path d="M9.62598 14.2989L10.6979 15.4991L13.3767 12.4985" stroke="black" stroke-width="1.5" stroke-linecap="round" stroke-linejoin="round"/>
<path d="M4 12.4985C4 8.9623 4 7.19419 5.09822 6.09522C6.02916 5.16503 7.44094 5.0225 10.0012 5M19.003 12.4985C19.003 8.9623 19.003 7.19419 17.904 6.09522C16.9739 5.16503 15.5621 5.0225 13.0018 5" stroke="black" stroke-width="1.5" stroke-linecap="round"/>
<path d="M10.0012 20C7.90079 20 6.85057 20 6.04791 19.5911C5.34219 19.2316 4.76842 18.6578 4.40883 17.9521C4 17.1494 4 16.0992 4 13.9988C4 11.8983 4 10.8481 4.40883 10.0455C4.76842 9.33975 5.34219 8.76598 6.04791 8.40639C6.85057 7.99756 7.90079 7.99756 10.0012 7.99756H13.0018C15.1022 7.99756 16.1524 7.99756 16.9551 8.40639C17.6608 8.76598 18.2346 9.33975 18.5942 10.0455C19.003 10.8481 19.003 11.8983 19.003 13.9988C19.003 16.0992 19.003 17.1494 18.5942 17.9521C18.2346 18.6578 17.6608 19.2316 16.9551 19.5911C16.1524 20 15.1022 20 13.0018 20" stroke="black" stroke-width="1.5" stroke-linecap="round"/>
</svg>
