<svg width="24" height="24" viewBox="0 0 24 24" fill="none" xmlns="http://www.w3.org/2000/svg">
<path d="M15.1624 5.15139L14.011 5.78111L15.1624 6.41083L15.7921 7.56223L16.4218 6.41083L17.5732 5.78111L16.4218 5.15139L15.7921 4L15.1624 5.15139ZM10.7826 5.80772C9.72658 6.02199 8.74108 6.49738 7.91607 7.19049C7.09106 7.8836 6.45282 8.77234 6.05964 9.77556C5.66645 10.7788 5.53085 11.8645 5.66521 12.9336C5.79957 14.0027 6.19962 15.0212 6.82882 15.8959C7.45802 16.7706 8.29632 17.4738 9.26718 17.9412C10.238 18.4086 11.3105 18.6254 12.3867 18.5717C13.4629 18.518 14.5085 18.1955 15.428 17.6338C16.3475 17.0721 17.1116 16.2889 17.6506 15.3559C15.7358 15.341 13.9045 14.5699 12.5558 13.2106C11.2071 11.8513 10.4503 10.0141 10.4504 8.09922C10.4504 7.30905 10.556 6.53742 10.7826 5.80772ZM4 12.1307C4 7.67753 7.6098 4.06773 12.063 4.06773H13.4611L12.7612 5.27718C12.2944 6.08348 12.063 7.04297 12.063 8.09922C12.0629 8.93263 12.2473 9.75571 12.6031 10.5094C12.9588 11.263 13.4771 11.9285 14.1206 12.4581C14.7641 12.9877 15.5169 13.3682 16.3249 13.5723C17.133 13.7764 17.9762 13.799 18.794 13.6385L20.1502 13.3748L19.7123 14.6859C18.644 17.8853 15.6244 20.1937 12.063 20.1937C7.6098 20.1937 4 16.5839 4 12.1307ZM18.9165 7.62834L19.6535 8.97486L21 9.71182L19.6535 10.4488L18.9165 11.7953L18.1796 10.4488L16.833 9.71182L18.1796 8.97486L18.9165 7.62834Z" fill="black"/>
</svg>
