<svg width="24" height="24" viewBox="0 0 24 24" fill="none" xmlns="http://www.w3.org/2000/svg">
<path d="M9.6001 15.2001C10.2801 15.7041 11.1081 16.0001 12.0001 16.0001C12.8921 16.0001 13.7201 15.7041 14.4001 15.2001" stroke="black" stroke-width="1.5" stroke-linecap="round"/>
<path d="M20 12.1632V13.38C20 16.5 20 18.0608 19.0624 19.0304C18.1256 20 16.6168 20 13.6 20H10.4C7.3832 20 5.8744 20 4.9376 19.0304C4 18.0608 4 16.5008 4 13.38V12.1632C4 10.332 4 9.4168 4.416 8.6584C4.8304 7.8992 5.5896 7.4288 7.1072 6.4864L8.7072 5.4936C10.3112 4.4976 11.1136 4 12 4C12.8864 4 13.688 4.4976 15.2928 5.4936L16.8928 6.4864C18.4104 7.4288 19.1696 7.8992 19.5848 8.6584" stroke="black" stroke-width="1.5" stroke-linecap="round"/>
</svg>
