<svg width="24" height="24" viewBox="0 0 24 24" fill="none" xmlns="http://www.w3.org/2000/svg">
<path d="M12.5 15.3125L15.3125 12.5M15.3125 12.5L12.5 9.6875M15.3125 12.5H5M5 8.045V8C5 6.95 5 6.425 5.20437 6.02375C5.38437 5.67031 5.67031 5.38437 6.02375 5.20437C6.425 5 6.95 5 8 5H17C18.05 5 18.575 5 18.9753 5.20437C19.3287 5.38437 19.6156 5.67031 19.7956 6.02375C20 6.42406 20 6.94906 20 7.99719V17.0038C20 18.0519 20 18.5759 19.7956 18.9763C19.6155 19.3291 19.3284 19.6159 18.9753 19.7956C18.575 20 18.0509 20 17.0028 20H7.99719C6.94906 20 6.42406 20 6.02375 19.7956C5.67096 19.6159 5.38413 19.329 5.20437 18.9763C5 18.575 5 18.05 5 17V16.9531" stroke="black" stroke-width="2" stroke-linecap="round" stroke-linejoin="round"/>
</svg>
