<svg width="24" height="24" viewBox="0 0 24 24" fill="none" xmlns="http://www.w3.org/2000/svg">
<path d="M12.0001 20.4619L11.1541 17.9239H5.23011C4.76478 17.9239 4.36644 17.7583 4.03511 17.4269C3.70311 17.0963 3.53711 16.6983 3.53711 16.2329V5.23794C3.53711 4.77261 3.70311 4.37294 4.03511 4.03894C4.36644 3.70561 4.76478 3.53894 5.23011 3.53894H10.3071L11.0471 6.07594H18.7681C19.2614 6.07594 19.6671 6.23427 19.9851 6.55094C20.3024 6.86827 20.4611 7.27361 20.4611 7.76694V18.7619C20.4611 19.2273 20.3024 19.6269 19.9851 19.9609C19.6678 20.2943 19.2621 20.4609 18.7681 20.4609L12.0001 20.4619ZM7.90811 14.1959C8.88611 14.1959 9.68511 13.8823 10.3051 13.2549C10.9251 12.6269 11.2351 11.8126 11.2351 10.8119C11.2351 10.6653 11.2341 10.5506 11.2321 10.4679C11.2301 10.3853 11.2148 10.3049 11.1861 10.2269H7.82511V11.5269H9.72311C9.60311 11.9296 9.38744 12.2409 9.07611 12.4609C8.76544 12.6809 8.38378 12.7909 7.93111 12.7909C7.37911 12.7909 6.90511 12.5896 6.50911 12.1869C6.11311 11.7843 5.91511 11.2989 5.91511 10.7309C5.91511 10.1629 6.11178 9.67761 6.50511 9.27494C6.89911 8.87227 7.37044 8.67094 7.91911 8.67094C8.17244 8.67094 8.40978 8.71561 8.63111 8.80494C8.85244 8.89361 9.05878 9.03361 9.25011 9.22494L10.2831 8.24194C9.98444 7.93927 9.62711 7.70094 9.21111 7.52694C8.79578 7.35227 8.35578 7.26494 7.89111 7.26494C6.94711 7.26494 6.14044 7.60327 5.47111 8.27994C4.80044 8.95594 4.46511 9.77261 4.46511 10.7299C4.46511 11.6879 4.80178 12.5053 5.47511 13.1819C6.14844 13.8586 6.95944 14.1966 7.90811 14.1959ZM13.5621 14.6189L14.0351 14.1709C13.8398 13.9263 13.6561 13.6929 13.4841 13.4709C13.3114 13.2489 13.1528 13.0136 13.0081 12.7649L13.5621 14.6189ZM14.6191 13.5369C15.0164 13.0729 15.3181 12.6303 15.5241 12.2089C15.7301 11.7876 15.8681 11.4543 15.9381 11.2089H12.5781L12.8281 12.1039H13.6621C13.7734 12.3173 13.9074 12.5463 14.0641 12.7909C14.2208 13.0356 14.4058 13.2843 14.6191 13.5369ZM12.8461 19.6149H18.7691C19.0231 19.6149 19.2278 19.5339 19.3831 19.3719C19.5384 19.2099 19.6158 19.0093 19.6151 18.7699V7.77694C19.6151 7.52361 19.5378 7.31794 19.3831 7.15994C19.2278 7.00194 19.0234 6.92294 18.7701 6.92294H11.3101L12.3001 10.3579H13.9661V9.46794H14.8311V10.3579H17.9231V11.2099H16.8411C16.6998 11.7406 16.4911 12.2609 16.2151 12.7709C15.9398 13.2816 15.6091 13.7566 15.2231 14.1959L17.5251 16.4669L16.9151 17.0769L14.6201 14.7999L13.8551 15.5709L14.5391 17.9229L12.8461 19.6149Z" fill="black"/>
</svg>
